<mxfile host="app.diagrams.net" modified="2023-08-25T15:02:39.146Z" agent="Mozilla/5.0 (Linux; Android 10; K) AppleWebKit/537.36 (KHTML, like Gecko) Chrome/116.0.0.0 Mobile Safari/537.36" etag="514NETY0hjZj1Yzk6eoe" version="21.6.8" type="device">
  <diagram id="C5RBs43oDa-KdzZeNtuy" name="Page-1">
    <mxGraphModel dx="250" dy="432" grid="1" gridSize="10" guides="1" tooltips="1" connect="1" arrows="1" fold="1" page="1" pageScale="1" pageWidth="827" pageHeight="1169" math="0" shadow="0">
      <root>
        <mxCell id="WIyWlLk6GJQsqaUBKTNV-0" />
        <mxCell id="WIyWlLk6GJQsqaUBKTNV-1" parent="WIyWlLk6GJQsqaUBKTNV-0" />
        <mxCell id="lchSxDe_wmHGlSSoggAy-1" value="ARCLSTnode" style="shape=ext;double=1;rounded=0;whiteSpace=wrap;html=1;align=center;verticalAlign=top;fontStyle=1;fontSize=14;" parent="WIyWlLk6GJQsqaUBKTNV-1" vertex="1">
          <mxGeometry x="15" y="120" width="305" height="300" as="geometry" />
        </mxCell>
        <mxCell id="lchSxDe_wmHGlSSoggAy-3" value="ARINT framework" style="rounded=1;whiteSpace=wrap;html=1;" parent="WIyWlLk6GJQsqaUBKTNV-1" vertex="1">
          <mxGeometry x="460" y="160" width="120" height="60" as="geometry" />
        </mxCell>
        <mxCell id="JeaG76lhcimoAKw0cYJo-7" style="edgeStyle=none;curved=1;rounded=0;orthogonalLoop=1;jettySize=auto;html=1;entryX=0.5;entryY=0;entryDx=0;entryDy=0;fontSize=12;startSize=8;endSize=8;" edge="1" parent="WIyWlLk6GJQsqaUBKTNV-1" source="JeaG76lhcimoAKw0cYJo-0" target="JeaG76lhcimoAKw0cYJo-2">
          <mxGeometry relative="1" as="geometry" />
        </mxCell>
        <mxCell id="JeaG76lhcimoAKw0cYJo-8" style="edgeStyle=none;curved=1;rounded=0;orthogonalLoop=1;jettySize=auto;html=1;entryX=0.5;entryY=0;entryDx=0;entryDy=0;fontSize=12;startSize=8;endSize=8;" edge="1" parent="WIyWlLk6GJQsqaUBKTNV-1" source="JeaG76lhcimoAKw0cYJo-0" target="JeaG76lhcimoAKw0cYJo-1">
          <mxGeometry relative="1" as="geometry" />
        </mxCell>
        <mxCell id="JeaG76lhcimoAKw0cYJo-0" value="ARINT Framework" style="rounded=1;whiteSpace=wrap;html=1;verticalAlign=top;fontStyle=0" vertex="1" parent="WIyWlLk6GJQsqaUBKTNV-1">
          <mxGeometry x="30" y="160" width="270" height="160" as="geometry" />
        </mxCell>
        <mxCell id="JeaG76lhcimoAKw0cYJo-11" style="edgeStyle=none;curved=1;rounded=0;orthogonalLoop=1;jettySize=auto;html=1;fontSize=12;startSize=8;endSize=8;entryX=0.304;entryY=1;entryDx=0;entryDy=0;entryPerimeter=0;" edge="1" parent="WIyWlLk6GJQsqaUBKTNV-1" source="lchSxDe_wmHGlSSoggAy-0" target="JeaG76lhcimoAKw0cYJo-5">
          <mxGeometry relative="1" as="geometry" />
        </mxCell>
        <mxCell id="lchSxDe_wmHGlSSoggAy-0" value="ARINT CORE" style="rounded=1;whiteSpace=wrap;html=1;" parent="WIyWlLk6GJQsqaUBKTNV-1" vertex="1">
          <mxGeometry x="50" y="240" width="110" height="60" as="geometry" />
        </mxCell>
        <mxCell id="JeaG76lhcimoAKw0cYJo-1" value="ARINT RDatabase" style="rounded=1;whiteSpace=wrap;html=1;" vertex="1" parent="WIyWlLk6GJQsqaUBKTNV-1">
          <mxGeometry x="170" y="340" width="110" height="60" as="geometry" />
        </mxCell>
        <mxCell id="JeaG76lhcimoAKw0cYJo-2" value="ARINT KVDatabase" style="rounded=1;whiteSpace=wrap;html=1;" vertex="1" parent="WIyWlLk6GJQsqaUBKTNV-1">
          <mxGeometry x="50" y="340" width="110" height="60" as="geometry" />
        </mxCell>
        <mxCell id="JeaG76lhcimoAKw0cYJo-10" style="edgeStyle=none;curved=1;rounded=0;orthogonalLoop=1;jettySize=auto;html=1;fontSize=12;startSize=8;endSize=8;entryX=0.75;entryY=1;entryDx=0;entryDy=0;" edge="1" parent="WIyWlLk6GJQsqaUBKTNV-1" source="JeaG76lhcimoAKw0cYJo-4" target="JeaG76lhcimoAKw0cYJo-5">
          <mxGeometry relative="1" as="geometry" />
        </mxCell>
        <mxCell id="JeaG76lhcimoAKw0cYJo-4" value="ARINT product" style="rounded=1;whiteSpace=wrap;html=1;" vertex="1" parent="WIyWlLk6GJQsqaUBKTNV-1">
          <mxGeometry x="170" y="240" width="110" height="60" as="geometry" />
        </mxCell>
        <mxCell id="JeaG76lhcimoAKw0cYJo-5" value="specific components" style="rounded=1;whiteSpace=wrap;html=1;" vertex="1" parent="WIyWlLk6GJQsqaUBKTNV-1">
          <mxGeometry x="50" y="190" width="230" height="30" as="geometry" />
        </mxCell>
      </root>
    </mxGraphModel>
  </diagram>
</mxfile>
